<?xml version="1.0" encoding="utf-8"?>
<svg width="4622" height="1000" xmlns="http://www.w3.org/2000/svg" version="1.1" xmlns:bx="https://boxy-svg.com">
  <defs>
    <bx:export>
      <bx:file format="svg" href="#object-0" path="Layer 1.svg"/>
    </bx:export>
  </defs>
  <title>Definitions/Brand/Logos/Logo Badge/Potential/Logo Badge B • Potential 5 | WealthCX Brand</title>
  <g id="object-0">
    <title>Layer 1</title>
    <g id="Wordmark">
      <g id="Logo-Wordmark-|-WealthCX">
        <g id="CX">
          <g fill-rule="nonzero" id="X">
            <polygon points="4394.039794921875,554.2152810096741 4384.184814453125,554.2152810096741 4267.958984375,746.4651589393616 4153.14697265625,746.4651589393616 4310.913818359375,492.2233986854553 4163.001953125,253.53480005264282 4274.9853515625,253.53480005264282 4383.43359375,431.68961572647095 4393.28857421875,431.68961572647095 4501.8251953125,253.53480005264282 4611.6875,253.53480005264282 4463.775390625,492.2675576210022 4621.54248046875,746.5093483924866 4509.55859375,746.5093483924866 4394.039794921875,554.2594094276428 " id="Path" style="fill: rgb(146, 102, 255);"/>
            <path id="Path" d="m4545.53132,623.98372c-161.1697,-177.84553 -219.45948,-147.75539 -325.87478,-279.02969l91.25731,147.26935l-157.76688,254.24178l114.81186,0l116.22602,-192.24991l9.85491,0l115.51894,192.24991l111.98355,0l-76.01093,-122.48144l0,0z" style="fill: rgb(146, 102, 255);"/>
          </g>
          <g id="C">
            <path fill-rule="nonzero" id="Path" d="m4198.26737,598.57724c-28.19476,94.37964 -107.0782,151.42276 -202.13605,151.42276c-128.90925,0 -222.55295,-105.64687 -222.55295,-250c0,-144.35313 92.93663,-250 221.80167,-250c94.39498,0 174.69257,57.04313 202.84313,151.42276l-106.37111,0c-18.29565,-39.4574 -51.39576,-58.45705 -95.10205,-58.45705c-80.2976,0 -126.08093,65.48251 -126.08093,157.03429c0,91.55178 46.49041,157.03429 127.49509,157.03429c43.66209,0 75.34804,-18.99965 93.68789,-58.45705l106.37111,0l0.0442,0z" style="fill: rgb(146, 102, 255);"/>
            <path fill-rule="nonzero" id="Path" d="m3894.66556,598.93072c-15.64411,-26.37858 -23.90809,-60.31283 -23.90809,-98.93072c0,-91.55178 45.78333,-157.03429 126.08092,-157.03429c43.6621,0 76.76221,18.99965 95.10206,58.45705l106.37111,0c-28.23895,-94.37963 -108.53654,-151.42276 -202.93152,-151.42276c-94.39497,0 -166.95889,54.74549 -201.20801,139.22764c6.18694,61.94769 29.74149,142.3648 100.49353,209.70308z" style="fill: rgb(146, 102, 255);"/>
            <path id="Path" d="m3998.20836,657.03429c-46.84395,0 -82.10949,-21.91587 -103.5428,-58.10357c-70.75204,-67.33828 -94.2624,-147.75539 -100.49353,-209.70308c-13.3461,32.91799 -20.63785,70.29869 -20.63785,110.77236c0,144.35313 93.68789,250 222.55294,250c95.10205,0 173.98549,-57.04312 202.13605,-151.42276l-106.37111,0c-18.29565,39.4574 -50.0258,58.45705 -93.68789,58.45705l0.04419,0z" style="fill: rgb(146, 102, 255);"/>
          </g>
        </g>
        <g fill-rule="nonzero" id="W">
          <polygon points="2172.990478515625,250.03480000048876 2068.740478515625,743.0093483403325 1921.53564453125,743.0093483403325 1865.1904296875,424.69898457080126 1850.385986328125,424.69898457080126 1788.384033203125,743.0093483403325 1641.1790771484375,743.0093483403325 1544,250.03480000048876 1640.5162353515625,250.03480000048876 1712.373046875,635.2415871098638 1727.177490234375,635.2415871098638 1796.161865234375,285.25043720752 1920.82861328125,285.25043720752 1984.9075927734375,635.2415871098638 1999.7120361328125,635.2415871098638 2076.474365234375,250.03480000048876 " id="Path" style="fill: rgb(146, 102, 255);"/>
          <polygon points="1877.564208984375,285.25043720752 1788.42822265625,743.0093483403325 1641.1790771484375,743.0093483403325 1640.4720458984375,250.03480000048876 1712.328857421875,635.2415871098638 1727.13330078125,635.2415871098638 1796.161865234375,285.25043720752 " id="Path" style="fill: rgb(146, 102, 255);"/>
        </g>
        <path fill-rule="nonzero" id="Combined-Shape" d="m2510.492,564.0362c0,12.24663 -0.81658,23.26859 -2.44972,33.0659l-248.03455,0c2.04143,24.49326 10.61547,43.67964 25.7221,57.55916c15.10663,13.87951 33.6837,20.81927 55.73122,20.81927c31.84641,0 54.50636,-13.6754 67.97983,-41.02621l92.47709,0c-9.7989,32.65768 -28.58012,59.49821 -56.34366,80.52159c-27.76353,21.02338 -61.85552,31.53507 -102.27597,31.53507c-32.66298,0 -61.9576,-7.24592 -87.88385,-21.73776c-25.92624,-14.49185 -46.13647,-35.00496 -60.63067,-61.53932c-14.49419,-26.53436 -21.74129,-57.15094 -21.74129,-91.84972c0,-35.10701 7.14502,-65.9277 21.43508,-92.46206c14.29006,-26.53437 34.29614,-46.94542 60.01824,-61.23315c25.7221,-14.28774 55.32293,-21.43161 88.80249,-21.43161c32.2547,0 61.14103,6.93976 86.65898,20.81928c25.51796,13.87951 45.3199,33.57617 59.40581,59.08999c14.08591,25.51381 21.12887,54.80367 21.12887,87.86957zm-88.80249,-24.49326c-0.40829,-22.04394 -8.3699,-39.6995 -23.88481,-52.96668c-15.51492,-13.26718 -34.50028,-19.90077 -56.95608,-19.90077c-21.23095,0 -39.09351,6.42948 -53.58771,19.28844c-14.49421,12.85896 -23.37445,30.71863 -26.64076,53.57901l161.06936,0zm129.22294,30.61657c0,-34.29056 6.83881,-64.70303 20.51643,-91.23739c13.67763,-26.53437 32.2547,-46.94542 55.73122,-61.23315c23.47653,-14.28774 49.70898,-21.43161 78.69739,-21.43161c25.31381,0 47.4634,5.10277 66.44875,15.30829c18.98536,10.20553 34.19407,23.06449 45.62611,38.57689l0,-48.37419l86.35277,0l0,339.23165l-86.35277,0l0,-49.59885c-11.02375,15.92062 -26.23245,29.08575 -45.62611,39.49538c-19.39364,10.40964 -41.74737,15.61445 -67.06119,15.61445c-28.58011,0 -54.60842,-7.34797 -78.08495,-22.04393c-23.47652,-14.69596 -42.05359,-35.41317 -55.73122,-62.15165c-13.67762,-26.73847 -20.51643,-57.4571 -20.51643,-92.15589zm267.0199,1.22466c0,-20.81927 -4.08287,-38.67893 -12.24862,-53.579c-8.16574,-14.90007 -19.1895,-26.33026 -33.07127,-34.29057c-13.88177,-7.96031 -28.78426,-11.94046 -44.70746,-11.94046c-15.9232,0 -30.62155,3.8781 -44.09503,11.6343c-13.47348,7.7562 -24.39517,19.08433 -32.76506,33.9844c-8.36989,14.90006 -12.55483,32.55562 -12.55483,52.96667c0,20.41105 4.18494,38.27072 12.55483,53.57901c8.36989,15.30829 19.39365,27.04464 33.07127,35.20906c13.67763,8.16442 28.2739,12.24663 43.78882,12.24663c15.9232,0 30.82569,-3.98016 44.70746,-11.94047c13.88177,-7.96031 24.90553,-19.39049 33.07127,-34.29056c8.16575,-14.90007 12.24862,-32.75974 12.24862,-53.57901zm255.99616,-283.50948l0,453.12531l-85.74034,0l0,-453.12531l85.74034,0zm184.34172,184.31178l0,164.10484c0,11.43019 2.75594,19.69667 8.26782,24.79943c5.51188,5.10276 14.80042,7.65414 27.86561,7.65414l39.80801,0l0,72.25512l-53.89392,0c-72.26686,0 -108.40029,-35.10701 -108.40029,-105.32102l0,-163.49251l-40.42044,0l0,-70.41812l40.42044,0l0,-83.88942l86.35277,0l0,83.88942l75.94144,0l0,70.41812l-75.94144,0zm328.87544,-75.31677c25.7221,0 48.58619,5.61303 68.59227,16.83911c20.00608,11.22608 35.62307,27.75903 46.85097,49.59885c11.2279,21.83983 16.84185,48.06803 16.84185,78.6846l0,199.00774l-85.74033,0l0,-187.37344c0,-26.94259 -6.73674,-47.6598 -20.21023,-62.15165c-13.47348,-14.49184 -31.84641,-21.73777 -55.11879,-21.73777c-23.68066,0 -42.35981,7.24593 -56.03743,21.73777c-13.67763,14.49185 -20.51644,35.20906 -20.51644,62.15165l0,187.37344l-85.74033,0l0,-453.12531l85.74033,0l0,156.14453c11.02376,-14.69595 25.7221,-26.2282 44.09503,-34.59673c18.37293,-8.36853 38.7873,-12.55279 61.2431,-12.55279z" style="fill: rgb(146, 102, 255);"/>
      </g>
    </g>
    <g fill="#12F012" id="Symbol">
      <g id="Body-3-Fill">
        <path id="Body-3" d="m205.49965,329.39529c-0.45086,7.58902 -0.6795,15.23785 -0.6795,22.94009c0,74.7061 21.50937,144.38842 58.67296,203.19182l-93.18225,93.18677l180.44528,180.44529l95.75948,-95.76029c17.33923,77.00353 58.00319,145.17654 114.18042,196.70758c-58.5136,43.72682 -131.13926,69.61876 -209.8123,69.61876c-193.78774,0 -350.88374,-157.09601 -350.88374,-350.88374c0,-141.74029 84.04254,-263.85139 205.01438,-319.22007l0.48527,-0.22621zm268.09105,387.03852c35.44112,10.89314 73.07827,16.75715 112.08504,16.75715c36.05735,0 70.94438,-5.01075 104.00274,-14.37392l4.22338,4.22191c-15.92605,73.99845 -55.1925,139.32437 -109.71444,187.89292l-0.01143,0.00202c-55.9562,-50.07235 -95.74869,-117.83644 -110.58529,-194.50008z" style="fill: rgb(146, 102, 255);"/>
      </g>
      <g id="Body-2-Fill">
        <path id="Body-2" d="m1168.99057,649.11636c0,193.78767 -157.09594,350.88361 -350.8836,350.88361c-171.17989,0 -313.72977,-122.5796 -344.66047,-284.7496c35.18599,10.7379 72.53506,16.50883 111.23199,16.50883c41.413,0 81.28228,-6.60946 118.61051,-18.83107l116.51315,116.50586l180.44522,-180.44522l-93.96218,-93.96769c37.52949,-59.00222 59.2688,-129.03106 59.2688,-204.13738c0,-6.88132 -0.18249,-13.72001 -0.54289,-20.51151c120.41242,55.58485 203.97947,177.40545 203.97947,318.74417z" style="fill: rgb(146, 102, 255);"/>
      </g>
      <g id="Body-1-Fill">
        <path id="Body-1" d="m584.67843,0c193.78773,0 350.88373,157.096 350.88373,350.88374c0,193.78773 -157.096,350.88373 -350.88373,350.88373c-193.78774,0 -350.88374,-157.096 -350.88374,-350.88373c0,-193.78774 157.096,-350.88374 350.88374,-350.88374zm-0.1276,170.31086l-180.44528,180.44528l180.44528,180.44529l180.44529,-180.44529l-180.44529,-180.44528z" style="fill: rgb(146, 102, 255);"/>
      </g>
    </g>
  </g>
</svg>