<?xml version="1.0" encoding="UTF-8"?>
<svg width="4622px" height="1000px" viewBox="0 0 4622 1000" version="1.1" xmlns="http://www.w3.org/2000/svg" xmlns:xlink="http://www.w3.org/1999/xlink">
    <title>Definitions/Brand/Logos/Logo Badge/Potential/Logo Badge B • Potential 5 | WealthCX Brand   </title>
    <defs>
        <linearGradient x1="0%" y1="49.9955185%" x2="100%" y2="49.9955185%" id="linearGradient-1">
            <stop stop-color="#B960FC" offset="0%"></stop>
            <stop stop-color="#4F3BFF" offset="100%"></stop>
        </linearGradient>
        <linearGradient x1="0%" y1="49.9955185%" x2="100%" y2="49.9955185%" id="linearGradient-2">
            <stop stop-color="#12F012" offset="0%"></stop>
            <stop stop-color="#12F012" offset="100%"></stop>
        </linearGradient>
        <linearGradient x1="16.0015096%" y1="92.8128943%" x2="71.7709218%" y2="34.7209437%" id="linearGradient-3">
            <stop stop-color="#B960FC" offset="0%"></stop>
            <stop stop-color="#4F3BFF" offset="66%"></stop>
            <stop stop-color="#08071A" offset="100%"></stop>
        </linearGradient>
        <linearGradient x1="16.0015096%" y1="92.8128943%" x2="71.7709218%" y2="34.7209437%" id="linearGradient-4">
            <stop stop-color="#12F012" offset="0%"></stop>
            <stop stop-color="#12F012" offset="66%"></stop>
            <stop stop-color="#12F012" offset="100%"></stop>
        </linearGradient>
        <linearGradient x1="51.4639062%" y1="54.1975963%" x2="59.8044175%" y2="120.731707%" id="linearGradient-5">
            <stop stop-color="#B960FC" offset="0%"></stop>
            <stop stop-color="#4F3BFF" offset="66%"></stop>
            <stop stop-color="#08071A" offset="100%"></stop>
        </linearGradient>
        <linearGradient x1="51.4639062%" y1="54.1975963%" x2="59.8044175%" y2="120.731707%" id="linearGradient-6">
            <stop stop-color="#12F012" offset="0%"></stop>
            <stop stop-color="#12F012" offset="66%"></stop>
            <stop stop-color="#12F012" offset="100%"></stop>
        </linearGradient>
        <linearGradient x1="91.7113177%" y1="36.5438496%" x2="-12.4876982%" y2="60.6903475%" id="linearGradient-7">
            <stop stop-color="#B960FC" offset="0%"></stop>
            <stop stop-color="#4F3BFF" offset="66%"></stop>
            <stop stop-color="#08071A" offset="100%"></stop>
        </linearGradient>
        <linearGradient x1="91.7113177%" y1="36.5438496%" x2="-12.4876982%" y2="60.6903475%" id="linearGradient-8">
            <stop stop-color="#12F012" offset="0%"></stop>
            <stop stop-color="#12F012" offset="66%"></stop>
            <stop stop-color="#12F012" offset="100%"></stop>
        </linearGradient>
        <linearGradient x1="13.7427106%" y1="20.8059664%" x2="88.0207967%" y2="70.1041045%" id="linearGradient-9">
            <stop stop-color="#B960FC" offset="0%"></stop>
            <stop stop-color="#4F3BFF" offset="100%"></stop>
        </linearGradient>
        <linearGradient x1="13.7427106%" y1="20.8059664%" x2="88.0207967%" y2="70.1041045%" id="linearGradient-10">
            <stop stop-color="#12F012" offset="0%"></stop>
            <stop stop-color="#12F012" offset="100%"></stop>
        </linearGradient>
        <linearGradient x1="59.3233521%" y1="51.3489289%" x2="32.390182%" y2="49.6011473%" id="linearGradient-11">
            <stop stop-color="#B960FC" offset="0%"></stop>
            <stop stop-color="#4F3BFF" offset="66%"></stop>
            <stop stop-color="#08071A" offset="100%"></stop>
        </linearGradient>
        <linearGradient x1="59.3233521%" y1="51.3489289%" x2="32.390182%" y2="49.6011473%" id="linearGradient-12">
            <stop stop-color="#12F012" offset="0%"></stop>
            <stop stop-color="#12F012" offset="66%"></stop>
            <stop stop-color="#12F012" offset="100%"></stop>
        </linearGradient>
        <linearGradient x1="50%" y1="99.2160184%" x2="50%" y2="0%" id="linearGradient-13">
            <stop stop-color="#BF63FF" offset="0%"></stop>
            <stop stop-color="#473CFF" offset="100%"></stop>
        </linearGradient>
        <linearGradient x1="50%" y1="99.2160184%" x2="50%" y2="0%" id="linearGradient-14">
            <stop stop-color="#12F012" offset="0%"></stop>
            <stop stop-color="#12F012" offset="100%"></stop>
        </linearGradient>
    </defs>
    <g id="Definitions/Brand/Logos/Logo-Badge/Potential/Logo-Badge-B-•-Potential-5-|-WealthCX-Brand---" stroke="none" stroke-width="1" fill="none" fill-rule="evenodd">
        <g id="Wordmark" transform="translate(1544, 250)">
            <g id="Logo-Wordmark-|-WealthCX" transform="translate(-0, 0)">
                <g id="CX" transform="translate(2229.5343, 0)">
                    <g id="X" transform="translate(379.6128, 3.5348)" fill-rule="nonzero">
                        <polygon id="Path" fill="url(#linearGradient-2)" points="240.89279 300.680453 231.037884 300.680453 114.811863 492.930364 0 492.930364 157.76688 238.688582 9.85490591 0 121.838456 0 230.286613 178.154825 240.141519 178.154825 348.678061 0 458.540376 0 310.628402 238.732768 468.395282 492.97455 356.411732 492.97455 240.89279 300.724637"></polygon>
                        <path d="M392.384348,370.448922 C231.214654,192.603393 172.924874,222.693532 66.509567,91.4192295 L157.76688,238.688582 L0,492.930364 L114.811863,492.930364 L231.037884,300.680453 L240.89279,300.680453 L356.411732,492.930364 L468.395282,492.930364 L392.384348,370.448922 L392.384348,370.448922 Z" id="Path" fill="url(#linearGradient-4)"></path>
                    </g>
                    <g id="C">
                        <path d="M424.733187,348.577236 C396.538434,442.956875 317.654994,500 222.597135,500 C93.687895,500 0.0441924032,394.353128 0.0441924032,250 C0.0441924032,105.646872 92.9808166,0 221.845864,0 C316.240837,0 396.538434,57.043125 424.688995,151.422764 L318.317881,151.422764 C300.022226,111.965359 266.922115,92.9657125 223.215829,92.9657125 C142.918232,92.9657125 97.1349024,158.448215 97.1349024,250 C97.1349024,341.551785 143.62531,407.034288 224.629986,407.034288 C268.29208,407.034288 299.978033,388.034641 318.317881,348.577236 L424.688995,348.577236 L424.733187,348.577236 Z" id="Path" fill="url(#linearGradient-6)" fill-rule="nonzero"></path>
                        <path d="M121.131377,348.930718 C105.487267,322.552139 97.2232873,288.617886 97.2232873,250 C97.2232873,158.448215 143.006617,92.9657125 223.304213,92.9657125 C266.966308,92.9657125 300.066418,111.965359 318.406265,151.422764 L424.77738,151.422764 C396.538434,57.043125 316.240837,0 221.845864,0 C127.450891,0 54.886965,54.745493 20.6378523,139.227643 C26.8247888,201.175327 50.3793398,281.592436 121.131377,348.930718 Z" id="Path" fill="url(#linearGradient-8)" fill-rule="nonzero"></path>
                        <path d="M224.674178,407.034288 C177.83023,407.034288 142.564693,385.118417 121.131377,348.930718 C50.3793398,281.592436 26.8689811,201.175327 20.6378523,139.227643 C7.29174654,172.145635 0,209.526334 0,250 C0,394.353128 93.687895,500 222.552943,500 C317.654994,500 396.538434,442.956875 424.688995,348.577236 L318.317881,348.577236 C300.022226,388.034641 268.29208,407.034288 224.629986,407.034288 L224.674178,407.034288 Z" id="Path"></path>
                    </g>
                </g>
                <g id="W" transform="translate(0, 0.0348)" fill-rule="nonzero">
                    <polygon id="Path" fill="url(#linearGradient-10)" points="628.990475 0 524.740596 492.974549 377.535701 492.974549 321.190387 174.664192 306.385931 174.664192 244.38399 492.974549 97.1790946 492.974549 0 0 96.5162084 0 168.373056 385.206787 183.177511 385.206787 252.161853 35.2156239 376.828622 35.2156239 440.907607 385.206787 455.712062 385.206787 532.474267 0"></polygon>
                    <polygon id="Path" fill="url(#linearGradient-12)" points="333.564259 35.2156239 244.428182 492.974549 97.1790946 492.974549 96.4720162 0 168.328864 385.206787 183.133319 385.206787 252.161853 35.2156239"></polygon>
                </g>
                <path d="M966.492,314.036197 C966.492,326.282827 965.675422,337.304794 964.042277,347.102098 L716.007726,347.102098 C718.049162,371.595357 726.623195,390.781744 741.729829,404.661259 C756.836458,418.540773 775.413531,425.480529 797.461047,425.480529 C829.30746,425.480529 851.967406,411.805126 865.440885,384.454319 L957.917967,384.454319 C948.11907,417.111999 929.337855,443.95253 901.574315,464.975911 C873.810775,485.999293 839.718787,496.510984 799.298341,496.510984 C766.635355,496.510984 737.340741,489.265061 711.414494,474.773216 C685.488248,460.28137 665.278025,439.768265 650.783825,413.233899 C636.289626,386.699535 629.042529,356.08296 629.042529,321.384175 C629.042529,286.277169 636.187554,255.456483 650.477611,228.922118 C664.767667,202.387753 684.773747,181.976703 710.495845,167.688968 C736.217949,153.401233 765.818782,146.257365 799.298341,146.257365 C831.55304,146.257365 860.439367,153.197123 885.957323,167.076637 C911.475283,180.956151 931.27722,200.652814 945.363133,226.166626 C959.449041,251.680439 966.492,280.970296 966.492,314.036197 Z M877.689505,289.542936 C877.281218,267.499003 869.319615,249.843444 853.8047,236.576261 C838.289779,223.309079 819.30442,216.675488 796.848618,216.675488 C775.617674,216.675488 757.755107,223.104968 743.260908,235.96393 C728.766703,248.822891 719.886456,266.682561 716.620155,289.542936 L877.689505,289.542936 Z M1006.91245,320.159512 C1006.91245,285.868948 1013.75126,255.456483 1027.42888,228.922118 C1041.10651,202.387753 1059.68358,181.976703 1083.1601,167.688968 C1106.63663,153.401233 1132.86908,146.257365 1161.85749,146.257365 C1187.1713,146.257365 1209.32089,151.360128 1228.30624,161.565653 C1247.2916,171.771178 1262.50031,184.63014 1273.93235,200.142538 L1273.93235,151.768349 L1360.28512,151.768349 L1360.28512,491 L1273.93235,491 L1273.93235,441.401149 C1262.9086,457.321768 1247.6999,470.486895 1228.30624,480.89653 C1208.9126,491.306166 1186.55887,496.510984 1161.24505,496.510984 C1132.66494,496.510984 1106.63663,489.163006 1083.1601,474.46705 C1059.68358,459.771094 1041.10651,439.053878 1027.42888,412.315403 C1013.75126,385.576927 1006.91245,354.858297 1006.91245,320.159512 Z M1273.93235,321.384174 C1273.93235,300.564904 1269.84948,282.705235 1261.68373,267.805168 C1253.51799,252.905102 1242.49423,241.474914 1228.61246,233.514604 C1214.73069,225.554294 1199.8282,221.57414 1183.905,221.57414 C1167.9818,221.57414 1153.28345,225.452239 1139.80997,233.208438 C1126.33649,240.964637 1115.4148,252.29277 1107.04491,267.192836 C1098.67502,282.092903 1094.49008,299.748462 1094.49008,320.159512 C1094.49008,340.570561 1098.67502,358.430231 1107.04491,373.738518 C1115.4148,389.046805 1126.43856,400.783159 1140.11618,408.947579 C1153.79381,417.111999 1168.39008,421.194209 1183.905,421.194209 C1199.8282,421.194209 1214.73069,417.214055 1228.61246,409.253745 C1242.49423,401.293435 1253.51799,389.863247 1261.68373,374.96318 C1269.84948,360.063114 1273.93235,342.203445 1273.93235,321.384174 Z M1529.92851,37.87469 L1529.92851,491 L1444.18817,491 L1444.18817,37.87469 L1529.92851,37.87469 Z M1714.27023,222.186472 L1714.27023,386.291314 C1714.27023,397.721502 1717.02617,405.987977 1722.53805,411.090739 C1728.04993,416.193502 1737.33847,418.744883 1750.40366,418.744883 L1790.21167,418.744883 L1790.21167,491 L1736.31775,491 C1664.05089,491 1627.91746,455.892994 1627.91746,385.678982 L1627.91746,222.186472 L1587.49702,222.186472 L1587.49702,151.768349 L1627.91746,151.768349 L1627.91746,67.8789335 L1714.27023,67.8789335 L1714.27023,151.768349 L1790.21167,151.768349 L1790.21167,222.186472 L1714.27023,222.186472 Z M2043.14567,146.869697 C2068.86777,146.869697 2091.73186,152.482735 2111.73794,163.708813 C2131.74402,174.934891 2147.36101,191.467842 2158.58891,213.307665 C2169.81681,235.147489 2175.43076,261.375687 2175.43076,291.992263 L2175.43076,491 L2089.69043,491 L2089.69043,303.626561 C2089.69043,276.683975 2082.95369,255.966759 2069.4802,241.474914 C2056.00672,226.983069 2037.63379,219.737145 2014.36141,219.737145 C1990.68075,219.737145 1972.0016,226.983069 1958.32398,241.474914 C1944.64635,255.966759 1937.80754,276.683975 1937.80754,303.626561 L1937.80754,491 L1852.06721,491 L1852.06721,37.87469 L1937.80754,37.87469 L1937.80754,194.019223 C1948.8313,179.323266 1963.52964,167.791023 1981.90257,159.422493 C2000.2755,151.053962 2020.68987,146.869697 2043.14567,146.869697 Z" id="Combined-Shape" fill="url(#linearGradient-14)" fill-rule="nonzero"></path>
            </g>
        </g>
        <g id="Symbol" transform="translate(0, -0)" fill="#12F012">
            <g id="Body-3-Fill" transform="translate(0, 329.3953)">
                <path d="M205.499652,4.32150849e-14 C205.048792,7.58901776 204.820154,15.2378537 204.820154,22.940091 C204.820154,97.6461917 226.329519,167.328511 263.493114,226.131912 L170.310856,319.318684 L350.756143,499.763971 L446.51562,404.003676 C463.85485,481.007211 504.518809,549.180223 560.696044,600.711262 C502.182445,644.438081 429.556783,670.330015 350.883737,670.330015 C157.096,670.330015 0,513.234015 0,319.446278 C0,177.705993 84.0425362,55.5948941 205.014377,0.226213267 L205.499652,4.32150849e-14 Z M473.590701,387.03852 C509.031823,397.931656 546.668972,403.795674 585.675737,403.795674 C621.733089,403.795674 656.620118,398.784919 689.678481,389.42175 L693.901859,393.643655 C677.97581,467.642114 638.709356,532.968032 584.187423,581.536585 L584.175993,581.538601 C528.219793,531.466248 488.427303,463.702163 473.590701,387.03852 Z" id="Body-3"></path>
            </g>
            <g id="Body-2-Fill" transform="translate(473.4465, 330.3722)">
                <path d="M695.544072,318.744175 C695.544072,512.531836 538.448134,669.627775 344.660473,669.627775 C173.480585,669.627775 30.930697,547.048178 -4.42060838e-12,384.878178 C35.1859897,395.616076 72.5350557,401.387008 111.231995,401.387008 C152.644992,401.387008 192.514266,394.777547 229.8425,382.555942 L346.355651,499.061798 L526.800867,318.616581 L432.838687,224.648891 C470.368183,165.646667 492.107492,95.6178332 492.107492,20.5115114 C492.107492,13.6301932 491.925003,6.79149761 491.564601,-1.33628421e-14 C611.977023,55.5848511 695.544072,177.405448 695.544072,318.744175 Z" id="Body-2"></path>
            </g>
            <g id="Body-1-Fill" transform="translate(233.7947, 0)">
                <path d="M350.883737,0 C544.671473,0 701.767473,157.096 701.767473,350.883737 C701.767473,544.671473 544.671473,701.767473 350.883737,701.767473 C157.096,701.767473 0,544.671473 0,350.883737 C0,157.096 157.096,0 350.883737,0 Z M350.756143,170.310856 L170.310856,350.756143 L350.756143,531.20143 L531.20143,350.756143 L350.756143,170.310856 Z" id="Body-1"></path>
            </g>
        </g>
    </g>
</svg>